# xmcd CD database file
#
# Track frame offsets:
#	150
#	3597
#	12894
#	29499
#	31762
#	40782
#	51574
#	55232
#	67949
#	75504
#	81442
#	86694
#	97913
#	112323
#	115054
#	117538
#	120324
#	127479
#	139057
#	148832
#	158542
#
# Disc length: 2461 seconds
#
# Revision: 0
# Processed by: cddbd v1.5.2PL0 Copyright (c) Steve Scherf et al.
# Submitted via: CDex 1.60beta1
#
DISCID=20099b15
DTITLE=Gél Tamás és Kiss Szilvia - Miféle szerzet vagy te? (pogány oratórium) 
DYEAR=2004
DGENRE=Jazz
TTITLE0=Sancho Panza - Miatyánk
TTITLE1=Sancho Panza panasza
TTITLE2=Sancho Panza - A manír évadja
TTITLE3=Sancho Panza - Hajnalonta
TTITLE4=Amerika - Szappanopera
TTITLE5=Amerika - Forog a világ/textus
TTITLE6=Amerika - Ideértem hát
TTITLE7=Amerika - Részeg fény
TTITLE8=Filmszakadás
TTITLE9=Amerika - Elkoptatott szavak/Miatyánk
TTITLE10=Amerika - Alkalmi infernó
TTITLE11=A forradalom - Börleszk
TTITLE12=A forradalom - Miért nem lettem lángossütő?
TTITLE13=A forradalom - Guillevic után szabadon
TTITLE14=A forradalom - Az utca
TTITLE15=A forradalom - A dirigens
TTITLE16=A forradalom - Iván Gyenyiszovics meg a forradalom
TTITLE17=A forradalom - Déja vu
TTITLE18=A forradalom - Csak élek
TTITLE19=A forradalom - Az emlékezet tanulságai
TTITLE20=A forradalom - Sancho veszte
EXTD=YEAR: 2004
EXTT0=
EXTT1=
EXTT2=
EXTT3=
EXTT4=
EXTT5=
EXTT6=
EXTT7=
EXTT8=
EXTT9=
EXTT10=
EXTT11=
EXTT12=
EXTT13=
EXTT14=
EXTT15=
EXTT16=
EXTT17=
EXTT18=
EXTT19=
EXTT20=
PLAYORDER=
